<svg width="100px" height="48px" viewBox="0 0 369.89473684210526 91.63430394635579" class="looka-1j8o68f"><defs id="SvgjsDefs1290"></defs><g id="SvgjsG1291" featurekey="Df7oLJ-0" transform="matrix(1.1454734788426963,0,0,1.1454734788426963,-11.136464809292992,-11.829448429420756)" fill="#38c6bd"><path xmlns="http://www.w3.org/2000/svg" d="M10.723,74.585c0.367,0,0.72-0.202,0.896-0.553l3.647-7.292c0.017-0.031,0.048-0.089,0.089-0.172  c0.542-0.996,4.246-7.18,13.502-9.09c3.909-0.807,6.508-2.437,7.724-4.844c0.889-1.76,0.83-3.548,0.592-4.812  c0.81,0.023,1.651-0.146,2.471-0.514c1.465-0.658,2.7-1.875,3.477-3.428c1.107-2.215,1.079-4.698,0-6.517  c0.782-0.652,1.433-1.48,1.912-2.438c1.223-2.445,1.031-5.263-0.389-7.084c0.255-0.349,0.481-0.718,0.674-1.105  c1.449-2.898,0.896-6.2-1.221-7.904c0.605-1.428,0.764-2.965,0.445-4.379c-0.37-1.64-1.331-2.922-2.706-3.61  c-1.375-0.688-2.977-0.688-4.512,0.001c-1.303,0.584-2.423,1.611-3.201,2.922c-2.662-0.891-5.851,0.652-7.369,3.687  c-0.267,0.535-0.471,1.09-0.607,1.657c-2.032,0.308-3.929,1.757-4.988,3.875c-0.472,0.942-0.742,1.944-0.801,2.948  c-2.12,0.205-4.192,1.693-5.302,3.911c-0.777,1.553-1.01,3.271-0.657,4.838c0.209,0.93,0.609,1.745,1.166,2.401  c-1.143,0.574-2.569,1.594-3.427,3.326c-1.197,2.417-0.942,5.475,0.758,9.086c3.867,8.217,1.467,14.468,0.774,15.959l-0.124,0.249  c-0.025,0.049-0.042,0.084-0.053,0.106l-3.665,7.328c-0.247,0.494-0.047,1.095,0.447,1.342  C10.42,74.552,10.573,74.585,10.723,74.585z M14.706,48.645c-1.422-3.022-1.686-5.489-0.783-7.33  c1.133-2.311,3.816-2.933,3.84-2.938c0.415-0.089,0.729-0.431,0.782-0.852c0.053-0.421-0.165-0.831-0.545-1.021  c-0.829-0.414-1.415-1.217-1.65-2.261c-0.252-1.118-0.076-2.363,0.495-3.504c0.935-1.869,2.742-3.021,4.4-2.805  c0.306,0.038,0.607-0.061,0.826-0.274c0.219-0.212,0.329-0.513,0.299-0.817c-0.099-0.987,0.101-2.012,0.577-2.963  c0.849-1.697,2.455-2.832,4.005-2.832c0.013,0,0.024,0.001,0.037,0c0.503,0,0.928-0.374,0.992-0.874  c0.08-0.627,0.269-1.242,0.562-1.828c1.145-2.289,3.526-3.425,5.304-2.536c0.06,0.03,0.116,0.065,0.21,0.124  c0.249,0.153,0.56,0.163,0.835,0.076c0.276-0.088,0.511-0.316,0.625-0.583c0.038-0.088,0.075-0.176,0.118-0.263  c0.571-1.142,1.461-2.029,2.506-2.498c0.978-0.438,1.971-0.451,2.799-0.037s1.414,1.217,1.649,2.261  c0.252,1.118,0.076,2.362-0.495,3.504c-0.037,0.073-0.077,0.143-0.159,0.286c-0.135,0.238-0.159,0.525-0.08,0.788  c0.08,0.262,0.271,0.483,0.517,0.606c1.781,0.891,2.299,3.477,1.155,5.765c-0.248,0.495-0.567,0.952-0.949,1.36  c-0.187,0.199-0.284,0.466-0.269,0.739c0.015,0.272,0.141,0.527,0.349,0.705c1.331,1.136,1.576,3.401,0.583,5.386  c-0.48,0.961-1.188,1.739-2.044,2.251c-0.26,0.155-0.436,0.419-0.478,0.719c-0.042,0.3,0.054,0.602,0.26,0.823  c1.125,1.201,1.269,3.324,0.35,5.161c-0.571,1.142-1.461,2.029-2.506,2.498c-0.973,0.436-1.964,0.452-2.792,0.04l-0.008-0.004  c-0.495-0.246-1.095-0.045-1.341,0.448c-0.211,0.422-0.095,0.922,0.251,1.213c0.25,0.712,0.795,2.714-0.15,4.568  c-0.932,1.827-3.063,3.096-6.334,3.771c-4.255,0.878-7.432,2.564-9.737,4.322l5.296-10.59l6.861-2.287  c0.524-0.175,0.807-0.741,0.632-1.265c-0.174-0.523-0.74-0.808-1.265-0.632l-4.963,1.654l3.077-6.152l6.861-2.286  c0.524-0.175,0.808-0.741,0.633-1.265c-0.174-0.524-0.742-0.81-1.265-0.633l-4.964,1.654l3.254-6.506l6.862-2.287  c0.524-0.175,0.807-0.741,0.632-1.265c-0.174-0.523-0.739-0.808-1.265-0.632l-4.964,1.654l3.321-6.642  c0.247-0.494,0.047-1.095-0.447-1.342c-0.144-0.072-0.296-0.105-0.446-0.105c-0.367,0-0.72,0.202-0.896,0.553l-3.283,6.565  l-1.616-4.848c-0.174-0.524-0.742-0.809-1.265-0.633c-0.524,0.175-0.808,0.741-0.633,1.265l2.248,6.746l-3.254,6.507l-1.616-4.849  c-0.174-0.523-0.74-0.81-1.265-0.632c-0.524,0.175-0.807,0.741-0.632,1.265l2.248,6.746l-3.077,6.152l-1.616-4.849  c-0.175-0.523-0.74-0.808-1.265-0.632c-0.524,0.175-0.807,0.741-0.632,1.265l2.248,6.746L17.04,58.72  C17.054,55.886,16.496,52.448,14.706,48.645z"></path><path xmlns="http://www.w3.org/2000/svg" d="M74.281,57.456c-0.561,0.209-1.088,0.476-1.575,0.798c-1.696-1.16-4.073-1.393-6.292-0.565  c-0.987,0.368-1.869,0.917-2.595,1.61c-1.691-1.294-4.22-1.618-6.545-0.753c-2.685,1.001-4.439,3.302-4.557,5.646  c-1.227-0.36-2.968-0.587-4.78,0.096c-2.524,0.952-4.421,3.363-5.64,7.164c-2.779,8.668-8.819,11.599-10.324,12.208l-0.224,0.084  c-0.08,0.028-0.13,0.048-0.15,0.056c-0.002,0-0.004,0.001-0.006,0.002l-7.657,2.855c-0.517,0.193-0.78,0.769-0.587,1.287  s0.769,0.781,1.287,0.587l7.646-2.852c0.035-0.012,0.095-0.032,0.177-0.063c1.077-0.36,8.002-2.357,16.074,2.555  c2.357,1.434,4.523,2.153,6.473,2.153c0.871,0,1.699-0.144,2.481-0.432c1.854-0.683,3.03-2.034,3.717-3.122  c1.637,1.611,4.408,2.156,7.035,1.176c2.321-0.865,3.993-2.701,4.443-4.767c1.019,0.052,2.058-0.106,3.061-0.48  c2.562-0.956,4.342-3.148,4.545-5.448c0.424-0.082,0.841-0.198,1.247-0.349c1.627-0.607,2.969-1.705,3.779-3.092  c0.67-1.148,0.917-2.384,0.736-3.533c1.407-0.633,2.563-1.646,3.291-2.891c0.848-1.453,1.019-3.045,0.482-4.486  c-0.537-1.441-1.709-2.533-3.301-3.076c-1.351-0.46-2.87-0.472-4.334-0.044c-0.613-1.138-1.666-2-3.024-2.463  C77.641,56.801,75.907,56.85,74.281,57.456z M80.589,61.094c0.023,0.061,0.039,0.123,0.069,0.231  c0.078,0.279,0.291,0.503,0.553,0.627c0.262,0.125,0.583,0.12,0.848,0.003c0.092-0.041,0.184-0.082,0.278-0.117  c1.196-0.446,2.453-0.488,3.537-0.118c1.013,0.345,1.75,1.013,2.073,1.881c0.324,0.868,0.205,1.854-0.335,2.779  c-0.578,0.989-1.555,1.78-2.753,2.227c-0.078,0.029-0.157,0.053-0.307,0.099c-0.28,0.087-0.507,0.297-0.622,0.567  c-0.104,0.246-0.104,0.523-0.004,0.769c0.315,0.864,0.194,1.843-0.342,2.762c-0.578,0.989-1.554,1.78-2.75,2.226  c-0.519,0.193-1.064,0.31-1.621,0.348c-0.272,0.019-0.525,0.147-0.7,0.357c-0.175,0.21-0.256,0.482-0.226,0.753  c0.199,1.738-1.167,3.562-3.246,4.338c-1.005,0.376-2.054,0.463-3.03,0.253c-0.297-0.063-0.604,0.01-0.839,0.201  c-0.235,0.19-0.371,0.477-0.371,0.779c0.003,1.646-1.338,3.297-3.263,4.014c-2.393,0.892-4.905,0.106-5.606-1.753l-0.004-0.011  c-0.193-0.517-0.771-0.78-1.287-0.586c-0.442,0.165-0.699,0.61-0.643,1.06c-0.303,0.691-1.269,2.528-3.224,3.239  c-1.929,0.703-4.352,0.176-7.205-1.56c-3.712-2.259-7.185-3.191-10.07-3.476l11.094-4.137l6.578,3.005  c0.135,0.062,0.276,0.09,0.415,0.09c0.379,0,0.742-0.217,0.91-0.584c0.229-0.502,0.008-1.096-0.494-1.325l-4.759-2.174l6.445-2.403  l6.578,3.005c0.135,0.062,0.276,0.09,0.415,0.09c0.379,0,0.742-0.217,0.91-0.584c0.229-0.502,0.008-1.096-0.494-1.325l-4.759-2.174  l6.816-2.542l6.578,3.005c0.135,0.062,0.276,0.09,0.415,0.09c0.379,0,0.742-0.217,0.91-0.584c0.229-0.502,0.008-1.096-0.494-1.325  l-4.759-2.174l6.957-2.594c0.517-0.193,0.78-0.769,0.587-1.287c-0.193-0.518-0.77-0.779-1.287-0.587l-6.877,2.565l2.123-4.649  c0.229-0.502,0.008-1.096-0.494-1.325c-0.502-0.23-1.096-0.009-1.325,0.494l-2.954,6.468l-6.816,2.542l2.123-4.649  c0.229-0.502,0.008-1.096-0.494-1.325c-0.503-0.231-1.096-0.008-1.325,0.494l-2.954,6.468l-6.445,2.404l2.123-4.649  c0.229-0.502,0.008-1.096-0.494-1.325c-0.503-0.231-1.096-0.008-1.325,0.494l-2.954,6.469L39.04,81.024  c1.942-2.063,3.878-4.959,5.161-8.962c1.02-3.181,2.509-5.165,4.425-5.896c2.401-0.92,4.791,0.456,4.811,0.468  c0.363,0.217,0.827,0.182,1.153-0.09s0.445-0.72,0.297-1.118c-0.696-1.866,0.688-4.112,3.085-5.006  c1.957-0.729,4.068-0.34,5.132,0.948c0.194,0.236,0.484,0.355,0.791,0.363c0.305-0.006,0.591-0.151,0.776-0.395  c0.601-0.789,1.445-1.402,2.442-1.774c1.788-0.668,3.75-0.396,4.88,0.678c0.368,0.348,0.938,0.367,1.328,0.043  c0.486-0.404,1.044-0.725,1.658-0.954c1.197-0.446,2.452-0.489,3.536-0.118C79.529,59.557,80.265,60.225,80.589,61.094z"></path><path xmlns="http://www.w3.org/2000/svg" d="M64.521,19.076c0,4.61,3.751,8.361,8.361,8.361s8.361-3.751,8.361-8.361s-3.751-8.361-8.361-8.361  S64.521,14.465,64.521,19.076z M79.244,19.076c0,3.508-2.854,6.361-6.361,6.361s-6.361-2.854-6.361-6.361s2.854-6.361,6.361-6.361  S79.244,15.568,79.244,19.076z"></path><path xmlns="http://www.w3.org/2000/svg" d="M57.226,54.296c0.023,0,0.047,0,0.07,0c2.233-0.019,4.326-0.906,5.892-2.498c1.015-1.032,1.724-2.282,2.097-3.641  c1.05,0.46,2.181,0.712,3.345,0.712c0.023,0,0.047,0,0.071,0c4.61-0.038,8.33-3.82,8.292-8.43c-0.038-4.587-3.782-8.292-8.361-8.292  c-0.023,0-0.046,0-0.069,0c-3.805,0.032-7.017,2.584-7.988,6.133c-1.065-0.465-2.223-0.713-3.417-0.706  c-2.233,0.019-4.326,0.906-5.892,2.498c-1.566,1.592-2.418,3.699-2.4,5.933C48.904,50.591,52.647,54.296,57.226,54.296z   M62.376,39.347c0.543-2.976,3.119-5.175,6.203-5.201c3.5,0.017,6.385,2.802,6.414,6.309c0.029,3.507-2.801,6.385-6.309,6.414  c-1.103-0.003-2.152-0.258-3.098-0.775c0.001-0.076,0.002-0.151,0.001-0.228c0,0,0,0,0,0c-0.003-0.305-0.025-0.606-0.059-0.905  c-0.009-0.074-0.024-0.146-0.034-0.219c-0.033-0.229-0.072-0.456-0.123-0.68c-0.017-0.074-0.038-0.147-0.057-0.22  c-0.057-0.222-0.122-0.441-0.197-0.656c-0.024-0.068-0.049-0.136-0.075-0.203c-0.082-0.216-0.172-0.428-0.271-0.637  c-0.03-0.064-0.06-0.128-0.092-0.191c-0.105-0.206-0.219-0.406-0.341-0.603c-0.038-0.061-0.073-0.123-0.112-0.183  c-0.127-0.194-0.265-0.381-0.409-0.565c-0.043-0.055-0.082-0.113-0.126-0.167c-0.189-0.229-0.388-0.452-0.603-0.663  c0,0,0,0-0.001-0.001c-0.007-0.007-0.015-0.012-0.021-0.019c-0.21-0.205-0.43-0.396-0.656-0.576  C62.399,39.368,62.388,39.357,62.376,39.347z M52.691,41.474c1.192-1.211,2.784-1.886,4.483-1.9c0.018,0,0.036,0,0.054,0  c1.271,0,2.485,0.372,3.52,1.064c0,0,0,0,0.001,0.001c0.199,0.132,0.385,0.278,0.566,0.429c0.055,0.047,0.108,0.096,0.162,0.145  c0.125,0.113,0.246,0.23,0.361,0.351c0.055,0.057,0.109,0.115,0.161,0.174c0.122,0.139,0.238,0.283,0.348,0.432  c0.029,0.04,0.061,0.078,0.089,0.118c0.281,0.401,0.514,0.832,0.696,1.286c0.013,0.034,0.025,0.068,0.038,0.102  c0.072,0.188,0.134,0.381,0.187,0.576c0.016,0.058,0.031,0.115,0.045,0.173c0.044,0.179,0.078,0.361,0.106,0.545  c0.009,0.062,0.021,0.123,0.029,0.185c0.029,0.239,0.049,0.48,0.051,0.724c0,0.001,0,0.002,0,0.002  c0.002,0.22-0.008,0.438-0.028,0.653c-0.135,1.453-0.76,2.805-1.797,3.86c-1.192,1.211-2.784,1.886-4.483,1.9  c-0.018,0-0.036,0-0.054,0c-3.483,0-6.331-2.819-6.36-6.309C50.852,44.288,51.5,42.686,52.691,41.474z"></path><path xmlns="http://www.w3.org/2000/svg" d="M72.261,17.04c-0.391-0.391-1.023-0.391-1.414,0s-0.391,1.023,0,1.414l0.622,0.622l-0.622,0.622  c-0.391,0.391-0.391,1.023,0,1.414c0.195,0.195,0.451,0.293,0.707,0.293s0.512-0.098,0.707-0.293l0.622-0.622l0.622,0.622  c0.195,0.195,0.451,0.293,0.707,0.293s0.512-0.098,0.707-0.293c0.391-0.391,0.391-1.023,0-1.414l-0.622-0.622l0.622-0.622  c0.391-0.391,0.391-1.023,0-1.414s-1.023-0.391-1.414,0l-0.622,0.622L72.261,17.04z"></path><path xmlns="http://www.w3.org/2000/svg" d="M66.561,42.543c0.195,0.195,0.451,0.293,0.707,0.293s0.512-0.098,0.707-0.293l0.622-0.621l0.622,0.621  c0.195,0.195,0.451,0.293,0.707,0.293s0.512-0.098,0.707-0.293c0.391-0.391,0.391-1.024,0-1.414l-0.621-0.621l0.621-0.621  c0.391-0.39,0.391-1.023,0-1.414s-1.023-0.391-1.414,0l-0.622,0.621l-0.622-0.621c-0.391-0.391-1.023-0.391-1.414,0  s-0.391,1.024,0,1.414l0.621,0.621l-0.621,0.621C66.17,41.519,66.17,42.152,66.561,42.543z"></path><path xmlns="http://www.w3.org/2000/svg" d="M55.191,47.97c0.195,0.195,0.451,0.293,0.707,0.293s0.512-0.098,0.707-0.293l0.621-0.621l0.621,0.621  c0.195,0.195,0.451,0.293,0.707,0.293s0.512-0.098,0.707-0.293c0.391-0.39,0.391-1.023,0-1.414l-0.621-0.622l0.621-0.622  c0.391-0.391,0.391-1.024,0-1.414c-0.391-0.391-1.023-0.391-1.414,0l-0.621,0.621l-0.621-0.621c-0.391-0.391-1.023-0.391-1.414,0  c-0.391,0.39-0.391,1.023,0,1.414l0.621,0.622l-0.621,0.622C54.801,46.947,54.801,47.58,55.191,47.97z"></path></g><g id="SvgjsG1292" featurekey="Ua4uQk-0" transform="matrix(3.7032558745317816,0,0,3.7032558745317816,107.55609100812686,-2.3307529190610587)" fill="#111111"><path d="M10.22 6 l3.22 0 l0 14 l-2.46 0 l-6.56 -8.14 l0 8.14 l-3.22 0 l0 -14 l2.5 0 l6.52 8.14 l0 -8.14 z M19.46 20.16 c-1.94 0 -3.92 -1.3 -3.92 -4.6 l0 -5.96 l3.16 0 l0 5.74 c0 1.58 0.54 2.08 1.54 2.08 c1.42 0 2.24 -1.38 2.44 -1.98 l0 -5.84 l3.16 0 l0 10.4 l-3.16 0 l0 -1.8 c-0.2 0.5 -1.26 1.96 -3.22 1.96 z M32.94 17.36 c0.56 0 0.96 -0.08 1.4 -0.2 l0 2.62 c-0.44 0.2 -1.16 0.34 -2.22 0.34 c-1.74 0 -3.2 -0.58 -3.2 -3.78 l0 -4.14 l-1.46 0 l0 -2.6 l1.46 0 l0 -2.44 l3.16 0 l0 2.44 l2.22 0 l0 2.6 l-2.22 0 l0 4.14 c0 0.46 0.12 1.02 0.86 1.02 z M42.7 9.44 c0.28 0 0.56 0 0.82 0.06 l0 3.02 c-0.24 -0.06 -0.52 -0.06 -0.72 -0.06 c-1.92 0 -3.46 1.38 -3.62 3.3 l0 4.24 l-3.16 0 l0 -10.4 l3.16 0 l0 2.54 c0.48 -1.56 1.68 -2.7 3.52 -2.7 z M48.300000000000004 5.859999999999999 l0 2.66 l-3.16 0 l0 -2.66 l3.16 0 z M48.300000000000004 9.6 l0 10.4 l-3.16 0 l0 -10.4 l3.16 0 z M55.18000000000001 5.76 c2.52 0 4.06 1.56 4.82 2.88 l-2.36 1.42 c-0.78 -1 -1.46 -1.46 -2.46 -1.46 c-0.86 0 -1.5 0.5 -1.5 1.2 c0 0.72 0.4 1.08 1.4 1.42 l0.94 0.34 c3.26 1.14 4.38 2.58 4.38 4.44 c0 2.92 -2.76 4.3 -5.16 4.3 c-2.56 0 -4.52 -1.52 -5.22 -3.46 l2.46 -1.32 c0.5 0.9 1.24 1.88 2.76 1.88 c1.04 0 1.82 -0.42 1.82 -1.36 c0 -0.86 -0.48 -1.26 -1.98 -1.82 l-0.8 -0.28 c-2.06 -0.74 -3.8 -1.72 -3.8 -4.28 c0 -2.28 2.16 -3.9 4.7 -3.9 z M65.52000000000001 17.04 l5.32 0 l0 2.96 l-8.54 0 l0 -14 l3.22 0 l0 11.04 z"></path></g></svg>